<svg xmlns="http://www.w3.org/2000/svg" width="1600" height="746" viewBox="0 0 1600 746" role="img" aria-labelledby="title desc">
  <title id="title">Course access guide illustration</title>
  <desc id="desc">Balanced high-contrast vector guide showing three simple steps: scroll down, wait for the link, and continue to the course.</desc>
  <defs>
    <linearGradient id="bg" x1="0" y1="0" x2="1" y2="1">
      <stop offset="0" stop-color="#111827"/>
      <stop offset="1" stop-color="#020617"/>
    </linearGradient>
  </defs>

  <rect width="1600" height="746" rx="44" fill="url(#bg)"/>
  <circle cx="1390" cy="100" r="250" fill="#22c55e" opacity=".11"/>
  <circle cx="160" cy="662" r="250" fill="#38bdf8" opacity=".12"/>

  <g transform="translate(104 104)">
    <rect width="202" height="52" rx="26" fill="#ffffff" fill-opacity=".12" stroke="#ffffff" stroke-opacity=".2" stroke-width="2"/>
    <text x="31" y="34" font-family="Arial, sans-serif" font-size="19" font-weight="900" fill="#ffffff">ACCESS GUIDE</text>

    <text x="0" y="134" font-family="Arial, sans-serif" font-size="72" font-weight="900" fill="#ffffff">Your link is</text>
    <text x="0" y="198" font-family="Arial, sans-serif" font-size="72" font-weight="900" fill="#ffffff">being prepared</text>
    <text x="0" y="270" font-family="Arial, sans-serif" font-size="26" fill="#cbd5e1">Scroll down, wait for the countdown, then press the green course button.</text>

    <g transform="translate(0 348)">
      <circle cx="26" cy="26" r="26" fill="#ffffff"/>
      <text x="17" y="35" font-family="Arial, sans-serif" font-size="23" font-weight="900" fill="#111827">1</text>
      <text x="72" y="34" font-family="Arial, sans-serif" font-size="24" font-weight="900" fill="#ffffff">Scroll down</text>
      <text x="72" y="70" font-family="Arial, sans-serif" font-size="19" fill="#cbd5e1">Move to the link section at the bottom.</text>
    </g>

    <g transform="translate(0 448)">
      <circle cx="26" cy="26" r="26" fill="#ffffff"/>
      <text x="17" y="35" font-family="Arial, sans-serif" font-size="23" font-weight="900" fill="#111827">2</text>
      <text x="72" y="34" font-family="Arial, sans-serif" font-size="24" font-weight="900" fill="#ffffff">Wait a few seconds</text>
      <text x="72" y="70" font-family="Arial, sans-serif" font-size="19" fill="#cbd5e1">The course link is prepared automatically.</text>
    </g>

    <g transform="translate(0 548)">
      <circle cx="26" cy="26" r="26" fill="#ffffff"/>
      <text x="17" y="35" font-family="Arial, sans-serif" font-size="23" font-weight="900" fill="#111827">3</text>
      <text x="72" y="34" font-family="Arial, sans-serif" font-size="24" font-weight="900" fill="#ffffff">Press the green button</text>
      <text x="72" y="70" font-family="Arial, sans-serif" font-size="19" fill="#cbd5e1">Open Udemy after the button appears.</text>
    </g>
  </g>

  <g transform="translate(920 82)">
    <rect width="540" height="582" rx="34" fill="#ffffff" stroke="#e5e7eb" stroke-width="4"/>
    <rect x="28" y="28" width="484" height="526" rx="28" fill="#f8fafc" stroke="#cbd5e1" stroke-width="4"/>

    <g transform="translate(56 66)">
      <rect width="428" height="118" rx="24" fill="#111827"/>
      <text x="32" y="72" font-family="Arial, sans-serif" font-size="36" font-weight="900" fill="#ffffff">1. Scroll down</text>
      <path d="M370 38v36" stroke="#ffffff" stroke-width="8" stroke-linecap="round"/>
      <path d="M350 58l20 22 20-22" fill="none" stroke="#ffffff" stroke-width="8" stroke-linecap="round" stroke-linejoin="round"/>
    </g>

    <g transform="translate(56 220)">
      <rect width="428" height="150" rx="24" fill="#ffffff" stroke="#94a3b8" stroke-width="4"/>
      <text x="32" y="60" font-family="Arial, sans-serif" font-size="32" font-weight="900" fill="#0f172a">2. Wait for the link</text>
      <rect x="32" y="92" width="292" height="26" rx="13" fill="#e2e8f0"/>
      <rect x="32" y="92" width="210" height="26" rx="13" fill="#16a34a"/>
      <text x="362" y="114" text-anchor="middle" font-family="Arial, sans-serif" font-size="22" font-weight="900" fill="#16a34a">70%</text>
    </g>

    <g transform="translate(56 418)">
      <rect width="428" height="94" rx="26" fill="#16a34a"/>
      <text x="214" y="60" text-anchor="middle" font-family="Arial, sans-serif" font-size="32" font-weight="900" fill="#ffffff">Continue to the course</text>
    </g>
  </g>
</svg>
