<svg xmlns="http://www.w3.org/2000/svg" width="1600" height="746" viewBox="0 0 1600 746" role="img" aria-labelledby="title desc">
  <title id="title">Course access guide illustration</title>
  <desc id="desc">Clear vector guide showing three steps: scroll down, wait for the link, then continue to the course.</desc>
  <defs>
    <linearGradient id="bg" x1="0" y1="0" x2="1" y2="1">
      <stop offset="0" stop-color="#111827"/>
      <stop offset="1" stop-color="#020617"/>
    </linearGradient>
    <linearGradient id="panel" x1="0" y1="0" x2="0" y2="1">
      <stop offset="0" stop-color="#ffffff"/>
      <stop offset="1" stop-color="#f8fafc"/>
    </linearGradient>
  </defs>

  <rect width="1600" height="746" rx="44" fill="url(#bg)"/>
  <circle cx="1360" cy="92" r="250" fill="#22c55e" opacity=".12"/>
  <circle cx="148" cy="660" r="250" fill="#38bdf8" opacity=".12"/>
  <circle cx="760" cy="86" r="150" fill="#a855f7" opacity=".1"/>

  <g transform="translate(104 104)">
    <rect width="202" height="52" rx="26" fill="#ffffff" fill-opacity=".12" stroke="#ffffff" stroke-opacity=".2" stroke-width="2"/>
    <text x="31" y="34" font-family="Arial, sans-serif" font-size="19" font-weight="900" fill="#ffffff">ACCESS GUIDE</text>

    <text x="0" y="134" font-family="Arial, sans-serif" font-size="72" font-weight="900" fill="#ffffff">Your link is</text>
    <text x="0" y="198" font-family="Arial, sans-serif" font-size="72" font-weight="900" fill="#ffffff">being prepared</text>
    <text x="0" y="270" font-family="Arial, sans-serif" font-size="26" fill="#cbd5e1">Scroll down, wait for the countdown, then press the green course button.</text>

    <g transform="translate(0 348)">
      <circle cx="26" cy="26" r="26" fill="#ffffff"/>
      <text x="17" y="35" font-family="Arial, sans-serif" font-size="23" font-weight="900" fill="#111827">1</text>
      <text x="72" y="34" font-family="Arial, sans-serif" font-size="24" font-weight="900" fill="#ffffff">Scroll down</text>
      <text x="72" y="70" font-family="Arial, sans-serif" font-size="19" fill="#cbd5e1">Move to the link section at the bottom.</text>
    </g>

    <g transform="translate(0 448)">
      <circle cx="26" cy="26" r="26" fill="#ffffff"/>
      <text x="17" y="35" font-family="Arial, sans-serif" font-size="23" font-weight="900" fill="#111827">2</text>
      <text x="72" y="34" font-family="Arial, sans-serif" font-size="24" font-weight="900" fill="#ffffff">Wait a few seconds</text>
      <text x="72" y="70" font-family="Arial, sans-serif" font-size="19" fill="#cbd5e1">The course link is prepared automatically.</text>
    </g>

    <g transform="translate(0 548)">
      <circle cx="26" cy="26" r="26" fill="#ffffff"/>
      <text x="17" y="35" font-family="Arial, sans-serif" font-size="23" font-weight="900" fill="#111827">3</text>
      <text x="72" y="34" font-family="Arial, sans-serif" font-size="24" font-weight="900" fill="#ffffff">Press the green button</text>
      <text x="72" y="70" font-family="Arial, sans-serif" font-size="19" fill="#cbd5e1">Open Udemy after the button appears.</text>
    </g>
  </g>

  <g transform="translate(884 66)">
    <rect width="612" height="614" rx="38" fill="url(#panel)" stroke="#e2e8f0" stroke-width="4"/>
    <rect x="42" y="38" width="528" height="52" rx="26" fill="#e5e7eb"/>
    <circle cx="78" cy="64" r="9" fill="#ef4444"/>
    <circle cx="112" cy="64" r="9" fill="#f59e0b"/>
    <circle cx="146" cy="64" r="9" fill="#22c55e"/>
    <text x="214" y="73" font-family="Arial, sans-serif" font-size="22" font-weight="900" fill="#334155">Course access</text>

    <g transform="translate(48 122)">
      <rect width="516" height="120" rx="26" fill="#111827"/>
      <rect x="28" y="30" width="58" height="58" rx="18" fill="#ffffff"/>
      <text x="49" y="69" font-family="Arial, sans-serif" font-size="28" font-weight="900" fill="#111827">1</text>
      <text x="112" y="56" font-family="Arial, sans-serif" font-size="38" font-weight="900" fill="#ffffff">Scroll down</text>
      <path d="M432 36v42" stroke="#ffffff" stroke-width="8" stroke-linecap="round"/>
      <path d="M410 60l22 24 22-24" fill="none" stroke="#ffffff" stroke-width="8" stroke-linecap="round" stroke-linejoin="round"/>
    </g>

    <g transform="translate(48 270)">
      <rect width="516" height="148" rx="26" fill="#ffffff" stroke="#cbd5e1" stroke-width="4"/>
      <rect x="28" y="32" width="58" height="58" rx="18" fill="#111827"/>
      <text x="49" y="71" font-family="Arial, sans-serif" font-size="28" font-weight="900" fill="#ffffff">2</text>
      <text x="112" y="60" font-family="Arial, sans-serif" font-size="34" font-weight="900" fill="#111827">Wait for the link</text>
      <rect x="112" y="88" width="334" height="24" rx="12" fill="#e5e7eb"/>
      <rect x="112" y="88" width="230" height="24" rx="12" fill="#16a34a"/>
      <text x="462" y="109" text-anchor="middle" font-family="Arial, sans-serif" font-size="20" font-weight="900" fill="#16a34a">70%</text>
    </g>

    <g transform="translate(48 452)">
      <rect width="516" height="104" rx="28" fill="#16a34a"/>
      <text x="258" y="66" text-anchor="middle" font-family="Arial, sans-serif" font-size="38" font-weight="900" fill="#ffffff">Continue to the course</text>
    </g>
  </g>
</svg>
