<svg xmlns="http://www.w3.org/2000/svg" width="1200" height="560" viewBox="0 0 1200 560" role="img" aria-labelledby="title desc">
  <title id="title">Course access guide illustration</title>
  <desc id="desc">Illustration showing how to scroll down, wait for the course link, and press the green course button.</desc>
  <defs>
    <linearGradient id="bg" x1="0" y1="0" x2="1" y2="1">
      <stop offset="0" stop-color="#111827"/>
      <stop offset="1" stop-color="#020617"/>
    </linearGradient>
    <linearGradient id="panel" x1="0" y1="0" x2="1" y2="1">
      <stop offset="0" stop-color="#ffffff" stop-opacity=".98"/>
      <stop offset="1" stop-color="#f8fafc" stop-opacity=".94"/>
    </linearGradient>
    <filter id="shadow" x="-20%" y="-20%" width="140%" height="150%">
      <feDropShadow dx="0" dy="18" stdDeviation="18" flood-color="#000000" flood-opacity=".22"/>
    </filter>
  </defs>

  <rect width="1200" height="560" rx="32" fill="url(#bg)"/>
  <circle cx="1050" cy="78" r="184" fill="#a855f7" opacity=".18"/>
  <circle cx="105" cy="505" r="190" fill="#22c55e" opacity=".15"/>
  <circle cx="650" cy="455" r="120" fill="#38bdf8" opacity=".11"/>

  <g transform="translate(76 76)">
    <rect width="152" height="38" rx="19" fill="#ffffff" fill-opacity=".12" stroke="#ffffff" stroke-opacity=".16"/>
    <text x="22" y="24" font-family="Inter, Arial, sans-serif" font-size="14" font-weight="800" fill="#ffffff">ACCESS GUIDE</text>

    <text x="0" y="100" font-family="Inter, Arial, sans-serif" font-size="52" font-weight="900" fill="#ffffff" letter-spacing="-.8">Your link is</text>
    <text x="0" y="146" font-family="Inter, Arial, sans-serif" font-size="52" font-weight="900" fill="#ffffff" letter-spacing="-.8">being prepared</text>
    <text x="0" y="200" font-family="Inter, Arial, sans-serif" font-size="19" fill="#cbd5e1">Scroll down, wait for the countdown, then press the green course button.</text>

    <g transform="translate(0 256)">
      <circle cx="18" cy="18" r="18" fill="#ffffff"/>
      <text x="12" y="24" font-family="Inter, Arial, sans-serif" font-size="16" font-weight="900" fill="#111827">1</text>
      <text x="48" y="24" font-family="Inter, Arial, sans-serif" font-size="17" font-weight="800" fill="#ffffff">Scroll down</text>
      <text x="48" y="48" font-family="Inter, Arial, sans-serif" font-size="14" fill="#cbd5e1">Move to the link section at the bottom.</text>
    </g>

    <g transform="translate(0 328)">
      <circle cx="18" cy="18" r="18" fill="#ffffff"/>
      <text x="12" y="24" font-family="Inter, Arial, sans-serif" font-size="16" font-weight="900" fill="#111827">2</text>
      <text x="48" y="24" font-family="Inter, Arial, sans-serif" font-size="17" font-weight="800" fill="#ffffff">Wait a few seconds</text>
      <text x="48" y="48" font-family="Inter, Arial, sans-serif" font-size="14" fill="#cbd5e1">The course link is prepared automatically.</text>
    </g>

    <g transform="translate(0 400)">
      <circle cx="18" cy="18" r="18" fill="#ffffff"/>
      <text x="12" y="24" font-family="Inter, Arial, sans-serif" font-size="16" font-weight="900" fill="#111827">3</text>
      <text x="48" y="24" font-family="Inter, Arial, sans-serif" font-size="17" font-weight="800" fill="#ffffff">Press the green button</text>
      <text x="48" y="48" font-family="Inter, Arial, sans-serif" font-size="14" fill="#cbd5e1">Open Udemy after the button appears.</text>
    </g>
  </g>

  <g transform="translate(704 58)" filter="url(#shadow)">
    <rect width="410" height="424" rx="28" fill="url(#panel)"/>
    <rect x="28" y="24" width="354" height="30" rx="15" fill="#e5e7eb"/>
    <circle cx="50" cy="39" r="5" fill="#ef4444"/>
    <circle cx="68" cy="39" r="5" fill="#f59e0b"/>
    <circle cx="86" cy="39" r="5" fill="#22c55e"/>

    <rect x="34" y="76" width="342" height="96" rx="20" fill="#111827"/>
    <text x="58" y="112" font-family="Inter, Arial, sans-serif" font-size="18" font-weight="900" fill="#ffffff">Scroll down and wait</text>
    <text x="58" y="140" font-family="Inter, Arial, sans-serif" font-size="14" fill="#cbd5e1">The access button appears after the countdown.</text>
    <path d="M316 104v30" stroke="#ffffff" stroke-width="4" stroke-linecap="round"/>
    <path d="M304 124l12 14 12-14" fill="none" stroke="#ffffff" stroke-width="4" stroke-linecap="round" stroke-linejoin="round"/>

    <rect x="34" y="190" width="342" height="88" rx="18" fill="#f8fafc"/>
    <text x="58" y="222" font-family="Inter, Arial, sans-serif" font-size="15" font-weight="800" fill="#111827">Preparing your course link...</text>
    <rect x="58" y="238" width="250" height="10" rx="5" fill="#e5e7eb"/>
    <rect x="58" y="238" width="170" height="10" rx="5" fill="#111827"/>
    <text x="58" y="265" font-family="Inter, Arial, sans-serif" font-size="13" fill="#64748b">Please wait a few seconds</text>

    <rect x="58" y="308" width="294" height="58" rx="16" fill="#16a34a"/>
    <text x="114" y="344" font-family="Inter, Arial, sans-serif" font-size="18" font-weight="900" fill="#ffffff">Continue to the course</text>

    <rect x="58" y="382" width="294" height="20" rx="10" fill="#111827" fill-opacity=".08"/>
    <text x="103" y="396" font-family="Inter, Arial, sans-serif" font-size="12" font-weight="700" fill="#0f172a">Press the green button after it appears</text>
  </g>
</svg>
