<svg xmlns="http://www.w3.org/2000/svg" width="420" height="560" viewBox="0 0 420 560" role="img" aria-labelledby="title desc">
  <title id="title">Learn Plus Courses mobile e-learning hero artwork</title>
  <desc id="desc">Mobile e-learning illustration with a student, laptop, course cards, and Udemy coupon learning elements.</desc>
  <defs>
    <linearGradient id="bg" x1="0" y1="0" x2="1" y2="1">
      <stop offset="0" stop-color="#111827"/>
      <stop offset="1" stop-color="#020617"/>
    </linearGradient>
    <linearGradient id="panel" x1="0" y1="0" x2="1" y2="1">
      <stop offset="0" stop-color="#ffffff" stop-opacity=".98"/>
      <stop offset="1" stop-color="#f8fafc" stop-opacity=".92"/>
    </linearGradient>
    <filter id="shadow" x="-20%" y="-20%" width="140%" height="150%">
      <feDropShadow dx="0" dy="14" stdDeviation="14" flood-color="#000000" flood-opacity=".28"/>
    </filter>
  </defs>

  <rect width="420" height="560" rx="28" fill="url(#bg)"/>
  <circle cx="355" cy="56" r="118" fill="#a855f7" opacity=".24"/>
  <circle cx="48" cy="500" r="128" fill="#22c55e" opacity=".18"/>
  <circle cx="336" cy="418" r="86" fill="#38bdf8" opacity=".13"/>

  <g transform="translate(32 42)">
    <rect width="118" height="34" rx="17" fill="#ffffff" fill-opacity=".12" stroke="#ffffff" stroke-opacity=".16"/>
    <text x="17" y="22" font-family="Inter, Arial, sans-serif" font-size="13" font-weight="800" fill="#ffffff">LEARN PLUS</text>

    <text x="0" y="98" font-family="Inter, Arial, sans-serif" font-size="38" font-weight="900" fill="#ffffff" letter-spacing="-.8">Free Udemy</text>
    <text x="0" y="140" font-family="Inter, Arial, sans-serif" font-size="38" font-weight="900" fill="#ffffff" letter-spacing="-.8">courses for</text>
    <text x="0" y="182" font-family="Inter, Arial, sans-serif" font-size="38" font-weight="900" fill="#ffffff" letter-spacing="-.8">online learners</text>

    <text x="0" y="222" font-family="Inter, Arial, sans-serif" font-size="15" fill="#cbd5e1">Fresh course finds, clean details,</text>
    <text x="0" y="245" font-family="Inter, Arial, sans-serif" font-size="15" fill="#cbd5e1">and coupons before they expire.</text>
  </g>

  <g transform="translate(34 302)" filter="url(#shadow)">
    <rect width="352" height="170" rx="24" fill="url(#panel)"/>
    <rect x="26" y="30" width="184" height="96" rx="18" fill="#111827"/>
    <rect x="48" y="55" width="82" height="12" rx="6" fill="#ffffff" fill-opacity=".92"/>
    <rect x="48" y="80" width="128" height="9" rx="4.5" fill="#94a3b8"/>
    <rect x="48" y="101" width="104" height="9" rx="4.5" fill="#64748b"/>
    <circle cx="176" cy="72" r="22" fill="#a855f7"/>
    <path d="M168 72l6 7 12-16" fill="none" stroke="#fff" stroke-width="4" stroke-linecap="round" stroke-linejoin="round"/>

    <rect x="226" y="28" width="94" height="38" rx="12" fill="#f1f5f9"/>
    <text x="245" y="52" font-family="Inter, Arial, sans-serif" font-size="13" font-weight="900" fill="#0f172a">Python</text>
    <rect x="226" y="78" width="94" height="38" rx="12" fill="#ecfdf5"/>
    <text x="243" y="102" font-family="Inter, Arial, sans-serif" font-size="13" font-weight="900" fill="#166534">Coupon</text>
  </g>

  <g transform="translate(156 426)">
    <circle cx="54" cy="28" r="25" fill="#fbbf24"/>
    <path d="M22 101c3-37 61-37 65 0" fill="#22c55e"/>
    <rect x="39" y="52" width="31" height="50" rx="14" fill="#0f172a"/>
    <circle cx="43" cy="26" r="4" fill="#0f172a"/>
    <circle cx="65" cy="26" r="4" fill="#0f172a"/>
    <path d="M44 38c7 6 16 6 22 0" fill="none" stroke="#0f172a" stroke-width="3" stroke-linecap="round"/>
    <rect x="-18" y="88" width="150" height="16" rx="8" fill="#ffffff" fill-opacity=".16"/>
  </g>

  <g transform="translate(262 260)">
    <rect width="110" height="38" rx="19" fill="#a435f0"/>
    <text x="26" y="25" font-family="Inter, Arial, sans-serif" font-size="15" font-weight="900" fill="#ffffff">Udemy</text>
  </g>
</svg>
