<svg xmlns="http://www.w3.org/2000/svg" width="1200" height="420" viewBox="0 0 1200 420" role="img" aria-labelledby="title desc">
  <title id="title">Learn Plus Courses e-learning hero artwork</title>
  <desc id="desc">Illustrated e-learning scene with students, course cards, laptop, and Udemy coupon learning elements.</desc>
  <defs>
    <linearGradient id="bg" x1="0" y1="0" x2="1" y2="1">
      <stop offset="0" stop-color="#111827"/>
      <stop offset="1" stop-color="#020617"/>
    </linearGradient>
    <linearGradient id="panel" x1="0" y1="0" x2="1" y2="1">
      <stop offset="0" stop-color="#ffffff" stop-opacity=".98"/>
      <stop offset="1" stop-color="#f8fafc" stop-opacity=".92"/>
    </linearGradient>
    <filter id="shadow" x="-20%" y="-25%" width="145%" height="155%">
      <feDropShadow dx="0" dy="18" stdDeviation="18" flood-color="#000000" flood-opacity=".25"/>
    </filter>
  </defs>

  <rect width="1200" height="420" rx="34" fill="url(#bg)"/>
  <circle cx="1088" cy="72" r="190" fill="#a855f7" opacity=".22"/>
  <circle cx="88" cy="350" r="170" fill="#22c55e" opacity=".18"/>
  <circle cx="730" cy="345" r="118" fill="#38bdf8" opacity=".12"/>
  <path d="M70 82h300" stroke="#fff" stroke-opacity=".12" stroke-width="1"/>
  <path d="M860 350h270" stroke="#fff" stroke-opacity=".12" stroke-width="1"/>

  <g transform="translate(76 70)">
    <rect width="122" height="36" rx="18" fill="#ffffff" fill-opacity=".12" stroke="#ffffff" stroke-opacity=".16"/>
    <text x="18" y="23" font-family="Inter, Arial, sans-serif" font-size="14" font-weight="800" fill="#ffffff">LEARN PLUS</text>
    <text x="0" y="92" font-family="Inter, Arial, sans-serif" font-size="54" font-weight="900" fill="#ffffff" letter-spacing="-.8">Free Udemy courses</text>
    <text x="0" y="136" font-family="Inter, Arial, sans-serif" font-size="54" font-weight="900" fill="#ffffff" letter-spacing="-.8">for online learners</text>
    <text x="2" y="184" font-family="Inter, Arial, sans-serif" font-size="19" fill="#cbd5e1">A clean place to discover useful courses, fresh coupons, and learning opportunities before they expire.</text>

    <g transform="translate(0 232)">
      <rect width="132" height="40" rx="20" fill="#ffffff" fill-opacity=".12" stroke="#ffffff" stroke-opacity=".16"/>
      <text x="22" y="25" font-family="Inter, Arial, sans-serif" font-size="14" font-weight="800" fill="#ffffff">Daily updates</text>
      <rect x="148" width="130" height="40" rx="20" fill="#ffffff" fill-opacity=".12" stroke="#ffffff" stroke-opacity=".16"/>
      <text x="174" y="25" font-family="Inter, Arial, sans-serif" font-size="14" font-weight="800" fill="#ffffff">100% coupons</text>
      <rect x="294" width="126" height="40" rx="20" fill="#ffffff" fill-opacity=".12" stroke="#ffffff" stroke-opacity=".16"/>
      <text x="318" y="25" font-family="Inter, Arial, sans-serif" font-size="14" font-weight="800" fill="#ffffff">Learn online</text>
    </g>
  </g>

  <g transform="translate(690 56)" filter="url(#shadow)">
    <rect x="40" y="34" width="340" height="246" rx="28" fill="url(#panel)"/>
    <rect x="72" y="68" width="276" height="118" rx="18" fill="#111827"/>
    <rect x="96" y="96" width="104" height="14" rx="7" fill="#ffffff" fill-opacity=".92"/>
    <rect x="96" y="124" width="188" height="10" rx="5" fill="#94a3b8"/>
    <rect x="96" y="146" width="150" height="10" rx="5" fill="#64748b"/>
    <circle cx="302" cy="122" r="30" fill="#a855f7"/>
    <path d="M291 122l9 9 16-20" fill="none" stroke="#fff" stroke-width="5" stroke-linecap="round" stroke-linejoin="round"/>

    <rect x="72" y="204" width="124" height="48" rx="14" fill="#f1f5f9"/>
    <text x="94" y="234" font-family="Inter, Arial, sans-serif" font-size="14" font-weight="900" fill="#0f172a">Python</text>
    <rect x="216" y="204" width="132" height="48" rx="14" fill="#ecfdf5"/>
    <text x="238" y="234" font-family="Inter, Arial, sans-serif" font-size="14" font-weight="900" fill="#166534">Free today</text>

    <g transform="translate(0 188)">
      <circle cx="44" cy="34" r="26" fill="#fbbf24"/>
      <path d="M18 93c3-32 52-32 55 0" fill="#22c55e"/>
      <rect x="30" y="55" width="30" height="44" rx="13" fill="#0f172a"/>
      <circle cx="33" cy="31" r="4" fill="#0f172a"/>
      <circle cx="55" cy="31" r="4" fill="#0f172a"/>
      <path d="M34 42c7 6 16 6 22 0" fill="none" stroke="#0f172a" stroke-width="3" stroke-linecap="round"/>
    </g>

    <g transform="translate(330 178)">
      <circle cx="36" cy="38" r="26" fill="#f59e0b"/>
      <path d="M10 96c3-34 50-34 54 0" fill="#38bdf8"/>
      <rect x="21" y="58" width="30" height="44" rx="13" fill="#312e81"/>
      <path d="M22 34c8-18 32-16 41 0" fill="#111827"/>
      <path d="M28 46c7 6 15 6 22 0" fill="none" stroke="#111827" stroke-width="3" stroke-linecap="round"/>
    </g>
  </g>

  <g transform="translate(655 62)">
    <rect width="124" height="42" rx="21" fill="#a435f0"/>
    <text x="30" y="27" font-family="Inter, Arial, sans-serif" font-size="16" font-weight="900" fill="#ffffff">Udemy</text>
  </g>
</svg>
