<svg xmlns="http://www.w3.org/2000/svg" width="840" height="1120" viewBox="0 0 840 1120" role="img" aria-labelledby="title desc">
  <title id="title">Learn Plus Courses mobile hero illustration</title>
  <desc id="desc">Sharp mobile e-learning illustration with student, laptop, course cards, and Udemy coupon elements.</desc>
  <defs>
    <linearGradient id="bg" x1="0" y1="0" x2="1" y2="1">
      <stop offset="0" stop-color="#111827"/>
      <stop offset="1" stop-color="#020617"/>
    </linearGradient>
    <linearGradient id="panel" x1="0" y1="0" x2="1" y2="1">
      <stop offset="0" stop-color="#ffffff"/>
      <stop offset="1" stop-color="#f8fafc"/>
    </linearGradient>
  </defs>

  <rect width="840" height="1120" rx="56" fill="url(#bg)"/>
  <circle cx="710" cy="112" r="236" fill="#a855f7" opacity=".22"/>
  <circle cx="96" cy="998" r="256" fill="#22c55e" opacity=".16"/>
  <circle cx="672" cy="836" r="172" fill="#38bdf8" opacity=".12"/>

  <g transform="translate(64 84)">
    <rect width="236" height="68" rx="34" fill="#ffffff" fill-opacity=".12" stroke="#ffffff" stroke-opacity=".18" stroke-width="3"/>
    <text x="34" y="44" font-family="Arial, sans-serif" font-size="26" font-weight="900" fill="#ffffff">LEARN PLUS</text>

    <text x="0" y="198" font-family="Arial, sans-serif" font-size="76" font-weight="900" fill="#ffffff">Free Udemy</text>
    <text x="0" y="282" font-family="Arial, sans-serif" font-size="76" font-weight="900" fill="#ffffff">courses for</text>
    <text x="0" y="366" font-family="Arial, sans-serif" font-size="76" font-weight="900" fill="#ffffff">online learners</text>

    <text x="0" y="444" font-family="Arial, sans-serif" font-size="30" fill="#cbd5e1">Fresh course finds, clean details,</text>
    <text x="0" y="492" font-family="Arial, sans-serif" font-size="30" fill="#cbd5e1">and coupons before they expire.</text>
  </g>

  <g transform="translate(68 604)">
    <rect width="704" height="340" rx="48" fill="url(#panel)" stroke="#e2e8f0" stroke-width="4"/>
    <rect x="52" y="60" width="368" height="192" rx="30" fill="#111827"/>
    <rect x="96" y="110" width="164" height="24" rx="12" fill="#ffffff"/>
    <rect x="96" y="160" width="256" height="18" rx="9" fill="#94a3b8"/>
    <rect x="96" y="202" width="208" height="18" rx="9" fill="#64748b"/>
    <circle cx="352" cy="144" r="44" fill="#a855f7"/>
    <path d="M336 144l13 15 27-36" fill="none" stroke="#ffffff" stroke-width="8" stroke-linecap="round" stroke-linejoin="round"/>

    <rect x="452" y="56" width="188" height="76" rx="24" fill="#f1f5f9" stroke="#e2e8f0" stroke-width="3"/>
    <text x="490" y="105" font-family="Arial, sans-serif" font-size="26" font-weight="900" fill="#0f172a">Python</text>
    <rect x="452" y="156" width="188" height="76" rx="24" fill="#ecfdf5" stroke="#bbf7d0" stroke-width="3"/>
    <text x="486" y="205" font-family="Arial, sans-serif" font-size="26" font-weight="900" fill="#166534">Coupon</text>
  </g>

  <g transform="translate(310 846)">
    <circle cx="108" cy="56" r="50" fill="#fbbf24"/>
    <path d="M44 202c6-74 122-74 130 0" fill="#22c55e"/>
    <rect x="78" y="104" width="62" height="100" rx="28" fill="#0f172a"/>
    <circle cx="86" cy="52" r="8" fill="#0f172a"/>
    <circle cx="130" cy="52" r="8" fill="#0f172a"/>
    <path d="M88 76c14 12 32 12 46 0" fill="none" stroke="#0f172a" stroke-width="7" stroke-linecap="round"/>
    <rect x="-36" y="176" width="300" height="32" rx="16" fill="#ffffff" fill-opacity=".16"/>
  </g>

  <g transform="translate(524 520)">
    <rect width="220" height="76" rx="38" fill="#a435f0"/>
    <text x="52" y="50" font-family="Arial, sans-serif" font-size="31" font-weight="900" fill="#ffffff">Udemy</text>
  </g>
</svg>
